<mxfile host="Electron" agent="Mozilla/5.0 (Windows NT 10.0; Win64; x64) AppleWebKit/537.36 (KHTML, like Gecko) draw.io/28.0.6 Chrome/138.0.7204.100 Electron/37.2.3 Safari/537.36" version="28.0.6">
  <diagram name="Page-1" id="coxxiFMaIpLtyCnfqvCg">
    <mxGraphModel dx="1006" dy="770" grid="1" gridSize="10" guides="1" tooltips="1" connect="1" arrows="1" fold="1" page="1" pageScale="1" pageWidth="1100" pageHeight="850" math="0" shadow="0">
      <root>
        <mxCell id="0" />
        <mxCell id="1" parent="0" />
        <mxCell id="yGAE3gA4r34tNPE38y26-1" value="Bronze Layer" style="rounded=0;whiteSpace=wrap;html=1;fillColor=#ffe6cc;strokeColor=#d79b00;fontSize=20;" vertex="1" parent="1">
          <mxGeometry x="270" y="140" width="190" height="30" as="geometry" />
        </mxCell>
        <mxCell id="yGAE3gA4r34tNPE38y26-3" value="Silver Layer" style="rounded=0;whiteSpace=wrap;html=1;fillColor=#f5f5f5;strokeColor=#666666;fontSize=20;fontColor=#333333;" vertex="1" parent="1">
          <mxGeometry x="495" y="140" width="195" height="30" as="geometry" />
        </mxCell>
        <mxCell id="yGAE3gA4r34tNPE38y26-5" value="Gold Layer" style="rounded=0;whiteSpace=wrap;html=1;fillColor=#fff2cc;strokeColor=#d6b656;fontSize=20;" vertex="1" parent="1">
          <mxGeometry x="730" y="141" width="190" height="30" as="geometry" />
        </mxCell>
        <mxCell id="yGAE3gA4r34tNPE38y26-7" value="" style="html=1;verticalLabelPosition=bottom;align=center;labelBackgroundColor=#ffffff;verticalAlign=top;strokeWidth=2;strokeColor=#d79b00;shadow=0;dashed=0;shape=mxgraph.ios7.icons.data;fillColor=#ffe6cc;" vertex="1" parent="1">
          <mxGeometry x="260" y="135" width="25.5" height="35" as="geometry" />
        </mxCell>
        <mxCell id="yGAE3gA4r34tNPE38y26-21" value="&lt;font style=&quot;font-size: 14px;&quot;&gt;&lt;b&gt;Definition&amp;nbsp;&lt;/b&gt;&lt;/font&gt;" style="rounded=0;whiteSpace=wrap;html=1;fillColor=#dae8fc;strokeColor=#6c8ebf;" vertex="1" parent="1">
          <mxGeometry x="110" y="180" width="140" height="40" as="geometry" />
        </mxCell>
        <mxCell id="yGAE3gA4r34tNPE38y26-22" value="&lt;font style=&quot;font-size: 14px;&quot;&gt;&lt;b&gt;Objective&lt;/b&gt;&lt;/font&gt;" style="rounded=0;whiteSpace=wrap;html=1;fillColor=#dae8fc;strokeColor=#6c8ebf;" vertex="1" parent="1">
          <mxGeometry x="110" y="230" width="140" height="40" as="geometry" />
        </mxCell>
        <mxCell id="yGAE3gA4r34tNPE38y26-23" value="&lt;font style=&quot;font-size: 14px;&quot;&gt;&lt;b&gt;Object Type&lt;/b&gt;&lt;/font&gt;" style="rounded=0;whiteSpace=wrap;html=1;fillColor=#dae8fc;strokeColor=#6c8ebf;" vertex="1" parent="1">
          <mxGeometry x="110" y="278" width="140" height="40" as="geometry" />
        </mxCell>
        <mxCell id="yGAE3gA4r34tNPE38y26-24" value="&lt;font style=&quot;font-size: 14px;&quot;&gt;&lt;b&gt;Load Method&lt;/b&gt;&lt;/font&gt;" style="rounded=0;whiteSpace=wrap;html=1;fillColor=#dae8fc;strokeColor=#6c8ebf;" vertex="1" parent="1">
          <mxGeometry x="110" y="327" width="140" height="40" as="geometry" />
        </mxCell>
        <mxCell id="yGAE3gA4r34tNPE38y26-25" value="&lt;font style=&quot;font-size: 14px;&quot;&gt;&lt;b&gt;Data&amp;nbsp; Transformation&lt;/b&gt;&lt;/font&gt;" style="rounded=0;whiteSpace=wrap;html=1;fillColor=#dae8fc;strokeColor=#6c8ebf;" vertex="1" parent="1">
          <mxGeometry x="110" y="375" width="140" height="135" as="geometry" />
        </mxCell>
        <mxCell id="yGAE3gA4r34tNPE38y26-26" value="&lt;font style=&quot;font-size: 14px;&quot;&gt;&lt;b&gt;Data Modeling&lt;/b&gt;&lt;/font&gt;" style="rounded=0;whiteSpace=wrap;html=1;fillColor=#dae8fc;strokeColor=#6c8ebf;" vertex="1" parent="1">
          <mxGeometry x="110" y="520" width="140" height="50" as="geometry" />
        </mxCell>
        <mxCell id="yGAE3gA4r34tNPE38y26-27" value="&lt;font style=&quot;font-size: 14px;&quot;&gt;&lt;b&gt;Target Audience&lt;/b&gt;&lt;/font&gt;" style="rounded=0;whiteSpace=wrap;html=1;fillColor=#dae8fc;strokeColor=#6c8ebf;" vertex="1" parent="1">
          <mxGeometry x="110" y="580" width="140" height="40" as="geometry" />
        </mxCell>
        <mxCell id="yGAE3gA4r34tNPE38y26-30" value="&lt;font&gt;&lt;b&gt;Raw, unprocessed data as-is from sources&lt;/b&gt;&lt;/font&gt;" style="rounded=0;whiteSpace=wrap;html=1;strokeColor=#E6E6E6;" vertex="1" parent="1">
          <mxGeometry x="270" y="180" width="190" height="40" as="geometry" />
        </mxCell>
        <mxCell id="yGAE3gA4r34tNPE38y26-31" value="&lt;font&gt;&lt;b&gt;Traceability &amp;amp; Debugging&lt;/b&gt;&lt;/font&gt;" style="rounded=0;whiteSpace=wrap;html=1;strokeColor=#E6E6E6;" vertex="1" parent="1">
          <mxGeometry x="270" y="230" width="190" height="40" as="geometry" />
        </mxCell>
        <mxCell id="yGAE3gA4r34tNPE38y26-32" value="&lt;font&gt;&lt;b&gt;Tables&amp;nbsp;&lt;/b&gt;&lt;/font&gt;" style="rounded=0;whiteSpace=wrap;html=1;strokeColor=#E6E6E6;" vertex="1" parent="1">
          <mxGeometry x="270" y="278" width="190" height="40" as="geometry" />
        </mxCell>
        <mxCell id="yGAE3gA4r34tNPE38y26-33" value="&lt;font&gt;&lt;b&gt;Full Load&lt;/b&gt;&lt;/font&gt;&lt;div&gt;&lt;font&gt;&lt;b&gt;(&lt;/b&gt;Truncate &amp;amp; Insert&amp;nbsp;&lt;b&gt;)&lt;/b&gt;&lt;/font&gt;&lt;/div&gt;" style="rounded=0;whiteSpace=wrap;html=1;strokeColor=#E6E6E6;" vertex="1" parent="1">
          <mxGeometry x="270" y="327" width="190" height="40" as="geometry" />
        </mxCell>
        <mxCell id="yGAE3gA4r34tNPE38y26-34" value="&lt;b&gt;None (as-is)&lt;/b&gt;" style="rounded=0;whiteSpace=wrap;html=1;strokeColor=#E6E6E6;" vertex="1" parent="1">
          <mxGeometry x="270" y="375" width="190" height="135" as="geometry" />
        </mxCell>
        <mxCell id="yGAE3gA4r34tNPE38y26-35" value="&lt;b&gt;None (as-is)&lt;/b&gt;" style="rounded=0;whiteSpace=wrap;html=1;strokeColor=#E6E6E6;" vertex="1" parent="1">
          <mxGeometry x="270" y="520" width="190" height="50" as="geometry" />
        </mxCell>
        <mxCell id="yGAE3gA4r34tNPE38y26-36" value="&lt;b&gt;- Data Engineers&lt;/b&gt;" style="rounded=0;whiteSpace=wrap;html=1;strokeColor=#E6E6E6;" vertex="1" parent="1">
          <mxGeometry x="270" y="580" width="190" height="40" as="geometry" />
        </mxCell>
        <mxCell id="yGAE3gA4r34tNPE38y26-37" value="" style="html=1;verticalLabelPosition=bottom;align=center;labelBackgroundColor=#ffffff;verticalAlign=top;strokeWidth=2;strokeColor=#666666;shadow=0;dashed=0;shape=mxgraph.ios7.icons.data;fillColor=#f5f5f5;fontColor=#333333;" vertex="1" parent="1">
          <mxGeometry x="488" y="136" width="25.5" height="35" as="geometry" />
        </mxCell>
        <mxCell id="yGAE3gA4r34tNPE38y26-38" value="&lt;font&gt;&lt;b&gt;Clean &amp;amp; Standardized Data&lt;/b&gt;&lt;/font&gt;" style="rounded=0;whiteSpace=wrap;html=1;strokeColor=#E6E6E6;" vertex="1" parent="1">
          <mxGeometry x="497.5" y="180" width="190" height="40" as="geometry" />
        </mxCell>
        <mxCell id="yGAE3gA4r34tNPE38y26-39" value="&lt;b&gt;(Intermediate Layer)&lt;/b&gt;&lt;div&gt;&lt;b&gt;Prepare Data for Analysis&lt;/b&gt;&lt;/div&gt;" style="rounded=0;whiteSpace=wrap;html=1;strokeColor=#E6E6E6;" vertex="1" parent="1">
          <mxGeometry x="497.5" y="230" width="190" height="40" as="geometry" />
        </mxCell>
        <mxCell id="yGAE3gA4r34tNPE38y26-40" value="&lt;font&gt;&lt;b&gt;Tables&amp;nbsp;&lt;/b&gt;&lt;/font&gt;" style="rounded=0;whiteSpace=wrap;html=1;strokeColor=#E6E6E6;" vertex="1" parent="1">
          <mxGeometry x="497.5" y="278" width="190" height="40" as="geometry" />
        </mxCell>
        <mxCell id="yGAE3gA4r34tNPE38y26-41" value="&lt;font&gt;&lt;b&gt;Full Load&lt;/b&gt;&lt;/font&gt;&lt;div&gt;&lt;font&gt;&lt;b&gt;(&lt;/b&gt;Truncate &amp;amp; Insert&amp;nbsp;&lt;b&gt;)&lt;/b&gt;&lt;/font&gt;&lt;/div&gt;" style="rounded=0;whiteSpace=wrap;html=1;strokeColor=#E6E6E6;" vertex="1" parent="1">
          <mxGeometry x="497.5" y="327" width="190" height="40" as="geometry" />
        </mxCell>
        <mxCell id="yGAE3gA4r34tNPE38y26-42" value="&lt;ul style=&quot;&quot;&gt;&lt;li&gt;Data &lt;b&gt;Cleansing&lt;/b&gt;&lt;/li&gt;&lt;li&gt;Data &lt;b&gt;Standriztion&lt;/b&gt;&lt;/li&gt;&lt;li&gt;Data &lt;b&gt;Normalization&lt;/b&gt;&lt;/li&gt;&lt;li&gt;&lt;b&gt;Derived Columns&lt;/b&gt;&lt;/li&gt;&lt;li&gt;Data &lt;b&gt;Enrichment&lt;/b&gt;&lt;/li&gt;&lt;/ul&gt;" style="rounded=0;whiteSpace=wrap;html=1;strokeColor=#E6E6E6;align=left;" vertex="1" parent="1">
          <mxGeometry x="497.5" y="375" width="190" height="135" as="geometry" />
        </mxCell>
        <mxCell id="yGAE3gA4r34tNPE38y26-43" value="&lt;b&gt;None (as-is)&lt;/b&gt;" style="rounded=0;whiteSpace=wrap;html=1;strokeColor=#E6E6E6;" vertex="1" parent="1">
          <mxGeometry x="497.5" y="520" width="190" height="50" as="geometry" />
        </mxCell>
        <mxCell id="yGAE3gA4r34tNPE38y26-44" value="&lt;div&gt;&lt;b&gt;&lt;span style=&quot;white-space: pre;&quot;&gt;&#x9;&lt;/span&gt;- Data Analyst&lt;/b&gt;&lt;/div&gt;&lt;b&gt;&lt;span style=&quot;white-space: pre;&quot;&gt;&#x9;&lt;/span&gt;-&lt;/b&gt;&lt;b style=&quot;background-color: transparent; color: light-dark(rgb(0, 0, 0), rgb(255, 255, 255));&quot;&gt;&amp;nbsp;Data Engineers&lt;/b&gt;" style="rounded=0;whiteSpace=wrap;html=1;strokeColor=#E6E6E6;align=left;" vertex="1" parent="1">
          <mxGeometry x="495" y="580" width="190" height="40" as="geometry" />
        </mxCell>
        <mxCell id="yGAE3gA4r34tNPE38y26-45" value="" style="html=1;verticalLabelPosition=bottom;align=center;labelBackgroundColor=#ffffff;verticalAlign=top;strokeWidth=2;strokeColor=#d6b656;shadow=0;dashed=0;shape=mxgraph.ios7.icons.data;fillColor=#fff2cc;" vertex="1" parent="1">
          <mxGeometry x="718.5" y="138" width="25.5" height="35" as="geometry" />
        </mxCell>
        <mxCell id="yGAE3gA4r34tNPE38y26-47" value="&lt;font&gt;&lt;b&gt;Business-Ready Data&lt;/b&gt;&lt;/font&gt;" style="rounded=0;whiteSpace=wrap;html=1;strokeColor=#E6E6E6;" vertex="1" parent="1">
          <mxGeometry x="730" y="180" width="190" height="40" as="geometry" />
        </mxCell>
        <mxCell id="yGAE3gA4r34tNPE38y26-48" value="&lt;b&gt;Provide data to be consumded for&amp;nbsp;&lt;/b&gt;" style="rounded=0;whiteSpace=wrap;html=1;strokeColor=#E6E6E6;" vertex="1" parent="1">
          <mxGeometry x="730" y="230" width="190" height="40" as="geometry" />
        </mxCell>
        <mxCell id="yGAE3gA4r34tNPE38y26-49" value="&lt;font&gt;&lt;b&gt;Viewa&lt;/b&gt;&lt;/font&gt;" style="rounded=0;whiteSpace=wrap;html=1;strokeColor=#E6E6E6;" vertex="1" parent="1">
          <mxGeometry x="730" y="278" width="190" height="40" as="geometry" />
        </mxCell>
        <mxCell id="yGAE3gA4r34tNPE38y26-50" value="&lt;b&gt;No Load&amp;nbsp;&lt;/b&gt;" style="rounded=0;whiteSpace=wrap;html=1;strokeColor=#E6E6E6;" vertex="1" parent="1">
          <mxGeometry x="730" y="327" width="190" height="40" as="geometry" />
        </mxCell>
        <mxCell id="yGAE3gA4r34tNPE38y26-51" value="&lt;ul style=&quot;&quot;&gt;&lt;li&gt;Data&lt;b&gt; Integrations&lt;/b&gt;&lt;/li&gt;&lt;li&gt;&lt;b&gt;Aggregations&lt;/b&gt;&lt;/li&gt;&lt;li&gt;&lt;b&gt;Business Logics&lt;/b&gt;&lt;/li&gt;&lt;/ul&gt;" style="rounded=0;whiteSpace=wrap;html=1;strokeColor=#E6E6E6;align=left;" vertex="1" parent="1">
          <mxGeometry x="730" y="375" width="190" height="135" as="geometry" />
        </mxCell>
        <mxCell id="yGAE3gA4r34tNPE38y26-52" value="&lt;ul style=&quot;&quot;&gt;&lt;li&gt;&lt;b&gt;Star Schema&lt;/b&gt;&lt;/li&gt;&lt;li&gt;&lt;b&gt;Flat Table&amp;nbsp;&lt;/b&gt;&lt;/li&gt;&lt;li&gt;&lt;b&gt;Aggregated Objects&lt;/b&gt;&lt;/li&gt;&lt;/ul&gt;" style="rounded=0;whiteSpace=wrap;html=1;strokeColor=#E6E6E6;align=left;" vertex="1" parent="1">
          <mxGeometry x="730" y="520" width="190" height="50" as="geometry" />
        </mxCell>
        <mxCell id="yGAE3gA4r34tNPE38y26-53" value="&lt;div&gt;&lt;b&gt;&lt;span style=&quot;white-space: pre;&quot;&gt;&#x9;&lt;/span&gt;- Data Analyst&lt;/b&gt;&lt;/div&gt;&lt;b&gt;&lt;span style=&quot;white-space: pre;&quot;&gt;&#x9;&lt;/span&gt;-&lt;/b&gt;&lt;b style=&quot;background-color: transparent; color: light-dark(rgb(0, 0, 0), rgb(255, 255, 255));&quot;&gt;&amp;nbsp;Business Users&lt;/b&gt;" style="rounded=0;whiteSpace=wrap;html=1;strokeColor=#E6E6E6;align=left;" vertex="1" parent="1">
          <mxGeometry x="730" y="580" width="190" height="40" as="geometry" />
        </mxCell>
      </root>
    </mxGraphModel>
  </diagram>
</mxfile>
